<?xml version="1.0" encoding="UTF-8" standalone="no"?>
<!DOCTYPE svg PUBLIC "-//W3C//DTD SVG 1.1//EN"
 "http://www.w3.org/Graphics/SVG/1.1/DTD/svg11.dtd">
<!-- Generated by graphviz version 12.2.1 (20241206.2353)
 -->
<!-- Pages: 1 -->
<svg width="2929pt" height="236pt"
 viewBox="0.00 0.00 2929.25 236.00" xmlns="http://www.w3.org/2000/svg" xmlns:xlink="http://www.w3.org/1999/xlink">
<g id="graph0" class="graph" transform="scale(1 1) rotate(0) translate(4 232)">
<polygon fill="white" stroke="none" points="-4,4 -4,-232 2925.25,-232 2925.25,4 -4,4"/>
<!-- 4357528064 -->
<g id="node1" class="node">
<title>4357528064</title>
<polygon fill="none" stroke="black" points="326.25,-55.5 326.25,-91.5 540,-91.5 540,-55.5 326.25,-55.5"/>
<text text-anchor="middle" x="352.62" y="-68.7" font-family="Times,serif" font-size="14.00">x2*w2</text>
<polyline fill="none" stroke="black" points="379,-56 379,-91.5"/>
<text text-anchor="middle" x="418.88" y="-68.7" font-family="Times,serif" font-size="14.00">data 0.0000</text>
<polyline fill="none" stroke="black" points="458.75,-56 458.75,-91.5"/>
<text text-anchor="middle" x="499.38" y="-68.7" font-family="Times,serif" font-size="14.00">grad 0.5000</text>
</g>
<!-- 4357528256+ -->
<g id="node12" class="node">
<title>4357528256+</title>
<ellipse fill="none" stroke="black" cx="605.25" cy="-100.5" rx="27" ry="18"/>
<text text-anchor="middle" x="605.25" y="-95.45" font-family="Times,serif" font-size="14.00">+</text>
</g>
<!-- 4357528064&#45;&gt;4357528256+ -->
<g id="edge27" class="edge">
<title>4357528064&#45;&gt;4357528256+</title>
<path fill="none" stroke="black" d="M540.42,-90.37C549.89,-91.87 559,-93.32 567.21,-94.62"/>
<polygon fill="black" stroke="black" points="566.63,-98.07 577.05,-96.18 567.72,-91.16 566.63,-98.07"/>
</g>
<!-- 4357528064* -->
<g id="node2" class="node">
<title>4357528064*</title>
<ellipse fill="none" stroke="black" cx="261" cy="-73.5" rx="27" ry="18"/>
<text text-anchor="middle" x="261" y="-68.45" font-family="Times,serif" font-size="14.00">*</text>
</g>
<!-- 4357528064*&#45;&gt;4357528064 -->
<g id="edge1" class="edge">
<title>4357528064*&#45;&gt;4357528064</title>
<path fill="none" stroke="black" d="M288.21,-73.5C296,-73.5 305.08,-73.5 314.82,-73.5"/>
<polygon fill="black" stroke="black" points="314.55,-77 324.55,-73.5 314.55,-70 314.55,-77"/>
</g>
<!-- 4357527104 -->
<g id="node3" class="node">
<title>4357527104</title>
<polygon fill="none" stroke="black" points="324,-110.5 324,-146.5 542.25,-146.5 542.25,-110.5 324,-110.5"/>
<text text-anchor="middle" x="350.38" y="-123.7" font-family="Times,serif" font-size="14.00">x1*w1</text>
<polyline fill="none" stroke="black" points="376.75,-111 376.75,-146.5"/>
<text text-anchor="middle" x="418.88" y="-123.7" font-family="Times,serif" font-size="14.00">data &#45;6.0000</text>
<polyline fill="none" stroke="black" points="461,-111 461,-146.5"/>
<text text-anchor="middle" x="501.62" y="-123.7" font-family="Times,serif" font-size="14.00">grad 0.5000</text>
</g>
<!-- 4357527104&#45;&gt;4357528256+ -->
<g id="edge17" class="edge">
<title>4357527104&#45;&gt;4357528256+</title>
<path fill="none" stroke="black" d="M542.35,-110.69C551.12,-109.24 559.54,-107.86 567.19,-106.6"/>
<polygon fill="black" stroke="black" points="567.72,-110.06 577.02,-104.98 566.58,-103.15 567.72,-110.06"/>
</g>
<!-- 4357527104* -->
<g id="node4" class="node">
<title>4357527104*</title>
<ellipse fill="none" stroke="black" cx="261" cy="-128.5" rx="27" ry="18"/>
<text text-anchor="middle" x="261" y="-123.45" font-family="Times,serif" font-size="14.00">*</text>
</g>
<!-- 4357527104*&#45;&gt;4357527104 -->
<g id="edge2" class="edge">
<title>4357527104*&#45;&gt;4357527104</title>
<path fill="none" stroke="black" d="M288.21,-128.5C295.29,-128.5 303.43,-128.5 312.17,-128.5"/>
<polygon fill="black" stroke="black" points="312.01,-132 322.01,-128.5 312.01,-125 312.01,-132"/>
</g>
<!-- 4305596496 -->
<g id="node5" class="node">
<title>4305596496</title>
<polygon fill="none" stroke="black" points="3.75,-55.5 3.75,-91.5 194.25,-91.5 194.25,-55.5 3.75,-55.5"/>
<text text-anchor="middle" x="18.5" y="-68.7" font-family="Times,serif" font-size="14.00">x2</text>
<polyline fill="none" stroke="black" points="33.25,-56 33.25,-91.5"/>
<text text-anchor="middle" x="73.12" y="-68.7" font-family="Times,serif" font-size="14.00">data 0.0000</text>
<polyline fill="none" stroke="black" points="113,-56 113,-91.5"/>
<text text-anchor="middle" x="153.62" y="-68.7" font-family="Times,serif" font-size="14.00">grad 0.5000</text>
</g>
<!-- 4305596496&#45;&gt;4357528064* -->
<g id="edge18" class="edge">
<title>4305596496&#45;&gt;4357528064*</title>
<path fill="none" stroke="black" d="M194.46,-73.5C204.21,-73.5 213.66,-73.5 222.21,-73.5"/>
<polygon fill="black" stroke="black" points="222.12,-77 232.12,-73.5 222.12,-70 222.12,-77"/>
</g>
<!-- 4357529696 -->
<g id="node6" class="node">
<title>4357529696</title>
<polygon fill="none" stroke="black" points="2430.75,-161.5 2430.75,-197.5 2611.5,-197.5 2611.5,-161.5 2430.75,-161.5"/>
<text text-anchor="middle" x="2440.62" y="-174.7" font-family="Times,serif" font-size="14.00"> </text>
<polyline fill="none" stroke="black" points="2450.5,-162 2450.5,-197.5"/>
<text text-anchor="middle" x="2490.38" y="-174.7" font-family="Times,serif" font-size="14.00">data 0.1464</text>
<polyline fill="none" stroke="black" points="2530.25,-162 2530.25,-197.5"/>
<text text-anchor="middle" x="2570.88" y="-174.7" font-family="Times,serif" font-size="14.00">grad 4.8284</text>
</g>
<!-- 4357529936* -->
<g id="node20" class="node">
<title>4357529936*</title>
<ellipse fill="none" stroke="black" cx="2674.5" cy="-153.5" rx="27" ry="18"/>
<text text-anchor="middle" x="2674.5" y="-148.45" font-family="Times,serif" font-size="14.00">*</text>
</g>
<!-- 4357529696&#45;&gt;4357529936* -->
<g id="edge19" class="edge">
<title>4357529696&#45;&gt;4357529936*</title>
<path fill="none" stroke="black" d="M2611.93,-164.08C2620.54,-162.6 2628.89,-161.16 2636.53,-159.85"/>
<polygon fill="black" stroke="black" points="2637.11,-163.3 2646.37,-158.16 2635.92,-156.4 2637.11,-163.3"/>
</g>
<!-- 4357529696**&#45;1 -->
<g id="node7" class="node">
<title>4357529696**&#45;1</title>
<ellipse fill="none" stroke="black" cx="2304.38" cy="-181.5" rx="27.81" ry="18"/>
<text text-anchor="middle" x="2304.38" y="-176.45" font-family="Times,serif" font-size="14.00">**&#45;1</text>
</g>
<!-- 4357529696**&#45;1&#45;&gt;4357529696 -->
<g id="edge3" class="edge">
<title>4357529696**&#45;1&#45;&gt;4357529696</title>
<path fill="none" stroke="black" d="M2332.57,-181.25C2354.68,-181.04 2387.33,-180.74 2419.22,-180.44"/>
<polygon fill="black" stroke="black" points="2418.96,-183.94 2428.93,-180.35 2418.9,-176.94 2418.96,-183.94"/>
</g>
<!-- 4357529216 -->
<g id="node8" class="node">
<title>4357529216</title>
<polygon fill="none" stroke="black" points="1681.5,-81.5 1681.5,-117.5 1866.75,-117.5 1866.75,-81.5 1681.5,-81.5"/>
<text text-anchor="middle" x="1691.38" y="-94.7" font-family="Times,serif" font-size="14.00"> </text>
<polyline fill="none" stroke="black" points="1701.25,-82 1701.25,-117.5"/>
<text text-anchor="middle" x="1743.38" y="-94.7" font-family="Times,serif" font-size="14.00">data &#45;1.0000</text>
<polyline fill="none" stroke="black" points="1785.5,-82 1785.5,-117.5"/>
<text text-anchor="middle" x="1826.12" y="-94.7" font-family="Times,serif" font-size="14.00">grad 0.1464</text>
</g>
<!-- 4357529264+ -->
<g id="node10" class="node">
<title>4357529264+</title>
<ellipse fill="none" stroke="black" cx="1929.75" cy="-126.5" rx="27" ry="18"/>
<text text-anchor="middle" x="1929.75" y="-121.45" font-family="Times,serif" font-size="14.00">+</text>
</g>
<!-- 4357529216&#45;&gt;4357529264+ -->
<g id="edge26" class="edge">
<title>4357529216&#45;&gt;4357529264+</title>
<path fill="none" stroke="black" d="M1867.15,-115.67C1875.89,-117.21 1884.36,-118.7 1892.08,-120.05"/>
<polygon fill="black" stroke="black" points="1891.2,-123.45 1901.66,-121.74 1892.41,-116.56 1891.2,-123.45"/>
</g>
<!-- 4357529264 -->
<g id="node9" class="node">
<title>4357529264</title>
<polygon fill="none" stroke="black" points="2214,-108.5 2214,-144.5 2394.75,-144.5 2394.75,-108.5 2214,-108.5"/>
<text text-anchor="middle" x="2223.88" y="-121.7" font-family="Times,serif" font-size="14.00"> </text>
<polyline fill="none" stroke="black" points="2233.75,-109 2233.75,-144.5"/>
<text text-anchor="middle" x="2273.62" y="-121.7" font-family="Times,serif" font-size="14.00">data 4.8284</text>
<polyline fill="none" stroke="black" points="2313.5,-109 2313.5,-144.5"/>
<text text-anchor="middle" x="2354.12" y="-121.7" font-family="Times,serif" font-size="14.00">grad 0.1464</text>
</g>
<!-- 4357529264&#45;&gt;4357529936* -->
<g id="edge28" class="edge">
<title>4357529264&#45;&gt;4357529936*</title>
<path fill="none" stroke="black" d="M2394.96,-133.07C2472.25,-138.74 2580.03,-146.64 2636.17,-150.76"/>
<polygon fill="black" stroke="black" points="2635.59,-154.23 2645.82,-151.47 2636.1,-147.25 2635.59,-154.23"/>
</g>
<!-- 4357529264+&#45;&gt;4357529264 -->
<g id="edge4" class="edge">
<title>4357529264+&#45;&gt;4357529264</title>
<path fill="none" stroke="black" d="M1957.25,-126.5C2007.51,-126.5 2119.07,-126.5 2202.03,-126.5"/>
<polygon fill="black" stroke="black" points="2202.02,-130 2212.02,-126.5 2202.02,-123 2202.02,-130"/>
</g>
<!-- 4357528256 -->
<g id="node11" class="node">
<title>4357528256</title>
<polygon fill="none" stroke="black" points="668.25,-82.5 668.25,-118.5 939,-118.5 939,-82.5 668.25,-82.5"/>
<text text-anchor="middle" x="720.88" y="-95.7" font-family="Times,serif" font-size="14.00">x1*w1 + x2*w2</text>
<polyline fill="none" stroke="black" points="773.5,-83 773.5,-118.5"/>
<text text-anchor="middle" x="815.62" y="-95.7" font-family="Times,serif" font-size="14.00">data &#45;6.0000</text>
<polyline fill="none" stroke="black" points="857.75,-83 857.75,-118.5"/>
<text text-anchor="middle" x="898.38" y="-95.7" font-family="Times,serif" font-size="14.00">grad 0.5000</text>
</g>
<!-- 4357528448+ -->
<g id="node23" class="node">
<title>4357528448+</title>
<ellipse fill="none" stroke="black" cx="1002" cy="-127.5" rx="27" ry="18"/>
<text text-anchor="middle" x="1002" y="-122.45" font-family="Times,serif" font-size="14.00">+</text>
</g>
<!-- 4357528256&#45;&gt;4357528448+ -->
<g id="edge12" class="edge">
<title>4357528256&#45;&gt;4357528448+</title>
<path fill="none" stroke="black" d="M939.14,-118.99C947.95,-120.21 956.31,-121.36 963.87,-122.4"/>
<polygon fill="black" stroke="black" points="963.16,-125.83 973.55,-123.73 964.12,-118.9 963.16,-125.83"/>
</g>
<!-- 4357528256+&#45;&gt;4357528256 -->
<g id="edge5" class="edge">
<title>4357528256+&#45;&gt;4357528256</title>
<path fill="none" stroke="black" d="M632.73,-100.5C639.73,-100.5 647.79,-100.5 656.52,-100.5"/>
<polygon fill="black" stroke="black" points="656.39,-104 666.39,-100.5 656.39,-97 656.39,-104"/>
</g>
<!-- 4357101792 -->
<g id="node13" class="node">
<title>4357101792</title>
<polygon fill="none" stroke="black" points="0,-165.5 0,-201.5 198,-201.5 198,-165.5 0,-165.5"/>
<text text-anchor="middle" x="16.25" y="-178.7" font-family="Times,serif" font-size="14.00">w1</text>
<polyline fill="none" stroke="black" points="32.5,-166 32.5,-201.5"/>
<text text-anchor="middle" x="74.62" y="-178.7" font-family="Times,serif" font-size="14.00">data &#45;3.0000</text>
<polyline fill="none" stroke="black" points="116.75,-166 116.75,-201.5"/>
<text text-anchor="middle" x="157.38" y="-178.7" font-family="Times,serif" font-size="14.00">grad 1.0000</text>
</g>
<!-- 4357101792&#45;&gt;4357527104* -->
<g id="edge14" class="edge">
<title>4357101792&#45;&gt;4357527104*</title>
<path fill="none" stroke="black" d="M172.12,-165.01C180.9,-162.35 189.7,-159.5 198,-156.5 208.09,-152.86 218.82,-148.27 228.47,-143.88"/>
<polygon fill="black" stroke="black" points="229.86,-147.09 237.45,-139.69 226.9,-140.75 229.86,-147.09"/>
</g>
<!-- 4357528832 -->
<g id="node14" class="node">
<title>4357528832</title>
<polygon fill="none" stroke="black" points="1066.5,-164.5 1066.5,-200.5 1247.25,-200.5 1247.25,-164.5 1066.5,-164.5"/>
<text text-anchor="middle" x="1076.38" y="-177.7" font-family="Times,serif" font-size="14.00"> </text>
<polyline fill="none" stroke="black" points="1086.25,-165 1086.25,-200.5"/>
<text text-anchor="middle" x="1126.12" y="-177.7" font-family="Times,serif" font-size="14.00">data 2.0000</text>
<polyline fill="none" stroke="black" points="1166,-165 1166,-200.5"/>
<text text-anchor="middle" x="1206.62" y="-177.7" font-family="Times,serif" font-size="14.00">grad 0.2203</text>
</g>
<!-- 4357528880* -->
<g id="node18" class="node">
<title>4357528880*</title>
<ellipse fill="none" stroke="black" cx="1311.75" cy="-154.5" rx="27" ry="18"/>
<text text-anchor="middle" x="1311.75" y="-149.45" font-family="Times,serif" font-size="14.00">*</text>
</g>
<!-- 4357528832&#45;&gt;4357528880* -->
<g id="edge21" class="edge">
<title>4357528832&#45;&gt;4357528880*</title>
<path fill="none" stroke="black" d="M1247.69,-166.05C1256.94,-164.35 1265.93,-162.71 1274.08,-161.22"/>
<polygon fill="black" stroke="black" points="1274.67,-164.67 1283.87,-159.42 1273.41,-157.78 1274.67,-164.67"/>
</g>
<!-- 4357101840 -->
<g id="node15" class="node">
<title>4357101840</title>
<polygon fill="none" stroke="black" points="2.25,-0.5 2.25,-36.5 195.75,-36.5 195.75,-0.5 2.25,-0.5"/>
<text text-anchor="middle" x="18.5" y="-13.7" font-family="Times,serif" font-size="14.00">w2</text>
<polyline fill="none" stroke="black" points="34.75,-1 34.75,-36.5"/>
<text text-anchor="middle" x="74.62" y="-13.7" font-family="Times,serif" font-size="14.00">data 1.0000</text>
<polyline fill="none" stroke="black" points="114.5,-1 114.5,-36.5"/>
<text text-anchor="middle" x="155.12" y="-13.7" font-family="Times,serif" font-size="14.00">grad 0.0000</text>
</g>
<!-- 4357101840&#45;&gt;4357528064* -->
<g id="edge25" class="edge">
<title>4357101840&#45;&gt;4357528064*</title>
<path fill="none" stroke="black" d="M168.91,-36.94C178.74,-39.93 188.67,-43.15 198,-46.5 207.96,-50.07 218.58,-54.47 228.18,-58.68"/>
<polygon fill="black" stroke="black" points="226.54,-61.78 237.1,-62.67 229.4,-55.39 226.54,-61.78"/>
</g>
<!-- 4305595152 -->
<g id="node16" class="node">
<title>4305595152</title>
<polygon fill="none" stroke="black" points="1.5,-110.5 1.5,-146.5 196.5,-146.5 196.5,-110.5 1.5,-110.5"/>
<text text-anchor="middle" x="16.25" y="-123.7" font-family="Times,serif" font-size="14.00">x1</text>
<polyline fill="none" stroke="black" points="31,-111 31,-146.5"/>
<text text-anchor="middle" x="70.88" y="-123.7" font-family="Times,serif" font-size="14.00">data 2.0000</text>
<polyline fill="none" stroke="black" points="110.75,-111 110.75,-146.5"/>
<text text-anchor="middle" x="153.62" y="-123.7" font-family="Times,serif" font-size="14.00">grad &#45;1.5000</text>
</g>
<!-- 4305595152&#45;&gt;4357527104* -->
<g id="edge13" class="edge">
<title>4305595152&#45;&gt;4357527104*</title>
<path fill="none" stroke="black" d="M196.76,-128.5C205.77,-128.5 214.47,-128.5 222.4,-128.5"/>
<polygon fill="black" stroke="black" points="222.25,-132 232.25,-128.5 222.25,-125 222.25,-132"/>
</g>
<!-- 4357528880 -->
<g id="node17" class="node">
<title>4357528880</title>
<polygon fill="none" stroke="black" points="1374.75,-136.5 1374.75,-172.5 1555.5,-172.5 1555.5,-136.5 1374.75,-136.5"/>
<text text-anchor="middle" x="1384.62" y="-149.7" font-family="Times,serif" font-size="14.00"> </text>
<polyline fill="none" stroke="black" points="1394.5,-137 1394.5,-172.5"/>
<text text-anchor="middle" x="1434.38" y="-149.7" font-family="Times,serif" font-size="14.00">data 1.7627</text>
<polyline fill="none" stroke="black" points="1474.25,-137 1474.25,-172.5"/>
<text text-anchor="middle" x="1514.88" y="-149.7" font-family="Times,serif" font-size="14.00">grad 0.2500</text>
</g>
<!-- 4357529024exp -->
<g id="node27" class="node">
<title>4357529024exp</title>
<ellipse fill="none" stroke="black" cx="1618.5" cy="-154.5" rx="27" ry="18"/>
<text text-anchor="middle" x="1618.5" y="-149.45" font-family="Times,serif" font-size="14.00">exp</text>
</g>
<!-- 4357528880&#45;&gt;4357529024exp -->
<g id="edge20" class="edge">
<title>4357528880&#45;&gt;4357529024exp</title>
<path fill="none" stroke="black" d="M1555.93,-154.5C1564.27,-154.5 1572.37,-154.5 1579.81,-154.5"/>
<polygon fill="black" stroke="black" points="1579.75,-158 1589.75,-154.5 1579.75,-151 1579.75,-158"/>
</g>
<!-- 4357528880*&#45;&gt;4357528880 -->
<g id="edge6" class="edge">
<title>4357528880*&#45;&gt;4357528880</title>
<path fill="none" stroke="black" d="M1339.12,-154.5C1346.26,-154.5 1354.45,-154.5 1363.14,-154.5"/>
<polygon fill="black" stroke="black" points="1362.86,-158 1372.86,-154.5 1362.86,-151 1362.86,-158"/>
</g>
<!-- 4357529936 -->
<g id="node19" class="node">
<title>4357529936</title>
<polygon fill="none" stroke="black" points="2737.5,-135.5 2737.5,-171.5 2921.25,-171.5 2921.25,-135.5 2737.5,-135.5"/>
<text text-anchor="middle" x="2748.88" y="-148.7" font-family="Times,serif" font-size="14.00">o</text>
<polyline fill="none" stroke="black" points="2760.25,-136 2760.25,-171.5"/>
<text text-anchor="middle" x="2800.12" y="-148.7" font-family="Times,serif" font-size="14.00">data 0.7071</text>
<polyline fill="none" stroke="black" points="2840,-136 2840,-171.5"/>
<text text-anchor="middle" x="2880.62" y="-148.7" font-family="Times,serif" font-size="14.00">grad 1.0000</text>
</g>
<!-- 4357529936*&#45;&gt;4357529936 -->
<g id="edge7" class="edge">
<title>4357529936*&#45;&gt;4357529936</title>
<path fill="none" stroke="black" d="M2701.78,-153.5C2708.92,-153.5 2717.11,-153.5 2725.82,-153.5"/>
<polygon fill="black" stroke="black" points="2725.56,-157 2735.56,-153.5 2725.56,-150 2725.56,-157"/>
</g>
<!-- 4357529456 -->
<g id="node21" class="node">
<title>4357529456</title>
<polygon fill="none" stroke="black" points="1681.5,-191.5 1681.5,-227.5 1866.75,-227.5 1866.75,-191.5 1681.5,-191.5"/>
<text text-anchor="middle" x="1691.38" y="-204.7" font-family="Times,serif" font-size="14.00"> </text>
<polyline fill="none" stroke="black" points="1701.25,-192 1701.25,-227.5"/>
<text text-anchor="middle" x="1741.12" y="-204.7" font-family="Times,serif" font-size="14.00">data 1.0000</text>
<polyline fill="none" stroke="black" points="1781,-192 1781,-227.5"/>
<text text-anchor="middle" x="1823.88" y="-204.7" font-family="Times,serif" font-size="14.00">grad &#45;0.1036</text>
</g>
<!-- 4357529504+ -->
<g id="node25" class="node">
<title>4357529504+</title>
<ellipse fill="none" stroke="black" cx="1929.75" cy="-181.5" rx="27" ry="18"/>
<text text-anchor="middle" x="1929.75" y="-176.45" font-family="Times,serif" font-size="14.00">+</text>
</g>
<!-- 4357529456&#45;&gt;4357529504+ -->
<g id="edge22" class="edge">
<title>4357529456&#45;&gt;4357529504+</title>
<path fill="none" stroke="black" d="M1867.15,-192.73C1875.89,-191.13 1884.36,-189.59 1892.08,-188.18"/>
<polygon fill="black" stroke="black" points="1892.45,-191.67 1901.66,-186.44 1891.19,-184.79 1892.45,-191.67"/>
</g>
<!-- 4357528448 -->
<g id="node22" class="node">
<title>4357528448</title>
<polygon fill="none" stroke="black" points="1065,-109.5 1065,-145.5 1248.75,-145.5 1248.75,-109.5 1065,-109.5"/>
<text text-anchor="middle" x="1076.38" y="-122.7" font-family="Times,serif" font-size="14.00">n</text>
<polyline fill="none" stroke="black" points="1087.75,-110 1087.75,-145.5"/>
<text text-anchor="middle" x="1127.62" y="-122.7" font-family="Times,serif" font-size="14.00">data 0.8814</text>
<polyline fill="none" stroke="black" points="1167.5,-110 1167.5,-145.5"/>
<text text-anchor="middle" x="1208.12" y="-122.7" font-family="Times,serif" font-size="14.00">grad 0.5000</text>
</g>
<!-- 4357528448&#45;&gt;4357528880* -->
<g id="edge16" class="edge">
<title>4357528448&#45;&gt;4357528880*</title>
<path fill="none" stroke="black" d="M1249.01,-143.6C1257.84,-145.16 1266.4,-146.67 1274.19,-148.04"/>
<polygon fill="black" stroke="black" points="1273.42,-151.46 1283.88,-149.75 1274.64,-144.57 1273.42,-151.46"/>
</g>
<!-- 4357528448+&#45;&gt;4357528448 -->
<g id="edge8" class="edge">
<title>4357528448+&#45;&gt;4357528448</title>
<path fill="none" stroke="black" d="M1029.28,-127.5C1036.42,-127.5 1044.61,-127.5 1053.32,-127.5"/>
<polygon fill="black" stroke="black" points="1053.06,-131 1063.06,-127.5 1053.06,-124 1053.06,-131"/>
</g>
<!-- 4357529504 -->
<g id="node24" class="node">
<title>4357529504</title>
<polygon fill="none" stroke="black" points="1992.75,-163.5 1992.75,-199.5 2178,-199.5 2178,-163.5 1992.75,-163.5"/>
<text text-anchor="middle" x="2002.62" y="-176.7" font-family="Times,serif" font-size="14.00"> </text>
<polyline fill="none" stroke="black" points="2012.5,-164 2012.5,-199.5"/>
<text text-anchor="middle" x="2052.38" y="-176.7" font-family="Times,serif" font-size="14.00">data 6.8284</text>
<polyline fill="none" stroke="black" points="2092.25,-164 2092.25,-199.5"/>
<text text-anchor="middle" x="2135.12" y="-176.7" font-family="Times,serif" font-size="14.00">grad &#45;0.1036</text>
</g>
<!-- 4357529504&#45;&gt;4357529696**&#45;1 -->
<g id="edge24" class="edge">
<title>4357529504&#45;&gt;4357529696**&#45;1</title>
<path fill="none" stroke="black" d="M2178.4,-181.5C2208.64,-181.5 2240.63,-181.5 2264.67,-181.5"/>
<polygon fill="black" stroke="black" points="2264.62,-185 2274.62,-181.5 2264.62,-178 2264.62,-185"/>
</g>
<!-- 4357529504+&#45;&gt;4357529504 -->
<g id="edge9" class="edge">
<title>4357529504+&#45;&gt;4357529504</title>
<path fill="none" stroke="black" d="M1957.16,-181.5C1964.2,-181.5 1972.25,-181.5 1980.8,-181.5"/>
<polygon fill="black" stroke="black" points="1980.79,-185 1990.79,-181.5 1980.79,-178 1980.79,-185"/>
</g>
<!-- 4357529024 -->
<g id="node26" class="node">
<title>4357529024</title>
<polygon fill="none" stroke="black" points="1682.62,-136.5 1682.62,-172.5 1865.62,-172.5 1865.62,-136.5 1682.62,-136.5"/>
<text text-anchor="middle" x="1693.62" y="-149.7" font-family="Times,serif" font-size="14.00">e</text>
<polyline fill="none" stroke="black" points="1704.62,-137 1704.62,-172.5"/>
<text text-anchor="middle" x="1744.5" y="-149.7" font-family="Times,serif" font-size="14.00">data 5.8284</text>
<polyline fill="none" stroke="black" points="1784.38,-137 1784.38,-172.5"/>
<text text-anchor="middle" x="1825" y="-149.7" font-family="Times,serif" font-size="14.00">grad 0.0429</text>
</g>
<!-- 4357529024&#45;&gt;4357529264+ -->
<g id="edge11" class="edge">
<title>4357529024&#45;&gt;4357529264+</title>
<path fill="none" stroke="black" d="M1865.82,-137.97C1875.07,-136.28 1884.05,-134.65 1892.19,-133.16"/>
<polygon fill="black" stroke="black" points="1892.74,-136.62 1901.95,-131.38 1891.48,-129.73 1892.74,-136.62"/>
</g>
<!-- 4357529024&#45;&gt;4357529504+ -->
<g id="edge23" class="edge">
<title>4357529024&#45;&gt;4357529504+</title>
<path fill="none" stroke="black" d="M1865.82,-170.44C1874.99,-172.05 1883.88,-173.61 1891.95,-175.03"/>
<polygon fill="black" stroke="black" points="1891.19,-178.45 1901.64,-176.74 1892.4,-171.56 1891.19,-178.45"/>
</g>
<!-- 4357529024exp&#45;&gt;4357529024 -->
<g id="edge10" class="edge">
<title>4357529024exp&#45;&gt;4357529024</title>
<path fill="none" stroke="black" d="M1645.91,-154.5C1653.35,-154.5 1661.92,-154.5 1671.02,-154.5"/>
<polygon fill="black" stroke="black" points="1670.84,-158 1680.84,-154.5 1670.84,-151 1670.84,-158"/>
</g>
<!-- 4357103568 -->
<g id="node28" class="node">
<title>4357103568</title>
<polygon fill="none" stroke="black" points="711.75,-137.5 711.75,-173.5 895.5,-173.5 895.5,-137.5 711.75,-137.5"/>
<text text-anchor="middle" x="723.12" y="-150.7" font-family="Times,serif" font-size="14.00">b</text>
<polyline fill="none" stroke="black" points="734.5,-138 734.5,-173.5"/>
<text text-anchor="middle" x="774.38" y="-150.7" font-family="Times,serif" font-size="14.00">data 6.8814</text>
<polyline fill="none" stroke="black" points="814.25,-138 814.25,-173.5"/>
<text text-anchor="middle" x="854.88" y="-150.7" font-family="Times,serif" font-size="14.00">grad 0.5000</text>
</g>
<!-- 4357103568&#45;&gt;4357528448+ -->
<g id="edge15" class="edge">
<title>4357103568&#45;&gt;4357528448+</title>
<path fill="none" stroke="black" d="M895.91,-142.48C919.97,-139.05 944.58,-135.55 963.93,-132.79"/>
<polygon fill="black" stroke="black" points="964.34,-136.26 973.75,-131.39 963.35,-129.33 964.34,-136.26"/>
</g>
</g>
</svg>
