<?xml version="1.0" encoding="UTF-8" standalone="no"?>
<!DOCTYPE svg PUBLIC "-//W3C//DTD SVG 1.1//EN"
 "http://www.w3.org/Graphics/SVG/1.1/DTD/svg11.dtd">
<!-- Generated by graphviz version 12.2.1 (20241206.2353)
 -->
<!-- Pages: 1 -->
<svg width="815pt" height="156pt"
 viewBox="0.00 0.00 814.75 156.00" xmlns="http://www.w3.org/2000/svg" xmlns:xlink="http://www.w3.org/1999/xlink">
<g id="graph0" class="graph" transform="scale(1 1) rotate(0) translate(4 152)">
<polygon fill="white" stroke="none" points="-4,4 -4,-152 810.75,-152 810.75,4 -4,4"/>
<!-- 4299945984 -->
<g id="node1" class="node">
<title>4299945984</title>
<polygon fill="none" stroke="black" points="2.62,-111.5 2.62,-147.5 104.38,-147.5 104.38,-111.5 2.62,-111.5"/>
<text text-anchor="middle" x="13.62" y="-124.7" font-family="Times,serif" font-size="14.00">a</text>
<polyline fill="none" stroke="black" points="24.62,-112 24.62,-147.5"/>
<text text-anchor="middle" x="64.5" y="-124.7" font-family="Times,serif" font-size="14.00">data 2.0000</text>
</g>
<!-- 4306150432* -->
<g id="node3" class="node">
<title>4306150432*</title>
<ellipse fill="none" stroke="black" cx="170" cy="-101.5" rx="27" ry="18"/>
<text text-anchor="middle" x="170" y="-96.45" font-family="Times,serif" font-size="14.00">*</text>
</g>
<!-- 4299945984&#45;&gt;4306150432* -->
<g id="edge7" class="edge">
<title>4299945984&#45;&gt;4306150432*</title>
<path fill="none" stroke="black" d="M104.72,-117.22C114.35,-114.86 124.26,-112.44 133.32,-110.23"/>
<polygon fill="black" stroke="black" points="133.9,-113.69 142.78,-107.91 132.24,-106.89 133.9,-113.69"/>
</g>
<!-- 4306150432 -->
<g id="node2" class="node">
<title>4306150432</title>
<polygon fill="none" stroke="black" points="234.12,-83.5 234.12,-119.5 340.38,-119.5 340.38,-83.5 234.12,-83.5"/>
<text text-anchor="middle" x="245.12" y="-96.7" font-family="Times,serif" font-size="14.00">e</text>
<polyline fill="none" stroke="black" points="256.12,-84 256.12,-119.5"/>
<text text-anchor="middle" x="298.25" y="-96.7" font-family="Times,serif" font-size="14.00">data &#45;6.0000</text>
</g>
<!-- 4339761712+ -->
<g id="node5" class="node">
<title>4339761712+</title>
<ellipse fill="none" stroke="black" cx="404.5" cy="-73.5" rx="27" ry="18"/>
<text text-anchor="middle" x="404.5" y="-68.45" font-family="Times,serif" font-size="14.00">+</text>
</g>
<!-- 4306150432&#45;&gt;4339761712+ -->
<g id="edge5" class="edge">
<title>4306150432&#45;&gt;4339761712+</title>
<path fill="none" stroke="black" d="M340.82,-88.73C349.88,-86.53 359.11,-84.29 367.6,-82.22"/>
<polygon fill="black" stroke="black" points="368.27,-85.66 377.16,-79.9 366.62,-78.86 368.27,-85.66"/>
</g>
<!-- 4306150432*&#45;&gt;4306150432 -->
<g id="edge1" class="edge">
<title>4306150432*&#45;&gt;4306150432</title>
<path fill="none" stroke="black" d="M197.44,-101.5C205.1,-101.5 213.82,-101.5 222.73,-101.5"/>
<polygon fill="black" stroke="black" points="222.53,-105 232.53,-101.5 222.53,-98 222.53,-105"/>
</g>
<!-- 4339761712 -->
<g id="node4" class="node">
<title>4339761712</title>
<polygon fill="none" stroke="black" points="468.62,-55.5 468.62,-91.5 571.12,-91.5 571.12,-55.5 468.62,-55.5"/>
<text text-anchor="middle" x="480" y="-68.7" font-family="Times,serif" font-size="14.00">d</text>
<polyline fill="none" stroke="black" points="491.38,-56 491.38,-91.5"/>
<text text-anchor="middle" x="531.25" y="-68.7" font-family="Times,serif" font-size="14.00">data 4.0000</text>
</g>
<!-- 4348665472* -->
<g id="node9" class="node">
<title>4348665472*</title>
<ellipse fill="none" stroke="black" cx="635.25" cy="-45.5" rx="27" ry="18"/>
<text text-anchor="middle" x="635.25" y="-40.45" font-family="Times,serif" font-size="14.00">*</text>
</g>
<!-- 4339761712&#45;&gt;4348665472* -->
<g id="edge6" class="edge">
<title>4339761712&#45;&gt;4348665472*</title>
<path fill="none" stroke="black" d="M571.59,-60.97C580.67,-58.73 589.96,-56.44 598.51,-54.33"/>
<polygon fill="black" stroke="black" points="599.28,-57.74 608.14,-51.95 597.6,-50.95 599.28,-57.74"/>
</g>
<!-- 4339761712+&#45;&gt;4339761712 -->
<g id="edge2" class="edge">
<title>4339761712+&#45;&gt;4339761712</title>
<path fill="none" stroke="black" d="M431.8,-73.5C439.43,-73.5 448.11,-73.5 456.96,-73.5"/>
<polygon fill="black" stroke="black" points="456.68,-77 466.68,-73.5 456.68,-70 456.68,-77"/>
</g>
<!-- 4299946560 -->
<g id="node6" class="node">
<title>4299946560</title>
<polygon fill="none" stroke="black" points="0,-56.5 0,-92.5 107,-92.5 107,-56.5 0,-56.5"/>
<text text-anchor="middle" x="11.38" y="-69.7" font-family="Times,serif" font-size="14.00">b</text>
<polyline fill="none" stroke="black" points="22.75,-57 22.75,-92.5"/>
<text text-anchor="middle" x="64.88" y="-69.7" font-family="Times,serif" font-size="14.00">data &#45;3.0000</text>
</g>
<!-- 4299946560&#45;&gt;4306150432* -->
<g id="edge8" class="edge">
<title>4299946560&#45;&gt;4306150432*</title>
<path fill="none" stroke="black" d="M107.39,-86.97C116.08,-89.02 124.89,-91.1 133.04,-93.02"/>
<polygon fill="black" stroke="black" points="132.01,-96.37 142.55,-95.26 133.62,-89.56 132.01,-96.37"/>
</g>
<!-- 4348665424 -->
<g id="node7" class="node">
<title>4348665424</title>
<polygon fill="none" stroke="black" points="467.5,-0.5 467.5,-36.5 572.25,-36.5 572.25,-0.5 467.5,-0.5"/>
<text text-anchor="middle" x="477.75" y="-13.7" font-family="Times,serif" font-size="14.00">f</text>
<polyline fill="none" stroke="black" points="488,-1 488,-36.5"/>
<text text-anchor="middle" x="530.12" y="-13.7" font-family="Times,serif" font-size="14.00">data &#45;2.0000</text>
</g>
<!-- 4348665424&#45;&gt;4348665472* -->
<g id="edge4" class="edge">
<title>4348665424&#45;&gt;4348665472*</title>
<path fill="none" stroke="black" d="M572.59,-30.81C581.32,-32.89 590.21,-35.01 598.42,-36.97"/>
<polygon fill="black" stroke="black" points="597.48,-40.34 608.02,-39.25 599.1,-33.53 597.48,-40.34"/>
</g>
<!-- 4348665472 -->
<g id="node8" class="node">
<title>4348665472</title>
<polygon fill="none" stroke="black" points="698.25,-27.5 698.25,-63.5 806.75,-63.5 806.75,-27.5 698.25,-27.5"/>
<text text-anchor="middle" x="710.38" y="-40.7" font-family="Times,serif" font-size="14.00">L</text>
<polyline fill="none" stroke="black" points="722.5,-28 722.5,-63.5"/>
<text text-anchor="middle" x="764.62" y="-40.7" font-family="Times,serif" font-size="14.00">data &#45;8.0000</text>
</g>
<!-- 4348665472*&#45;&gt;4348665472 -->
<g id="edge3" class="edge">
<title>4348665472*&#45;&gt;4348665472</title>
<path fill="none" stroke="black" d="M662.69,-45.5C669.91,-45.5 678.06,-45.5 686.43,-45.5"/>
<polygon fill="black" stroke="black" points="686.39,-49 696.39,-45.5 686.39,-42 686.39,-49"/>
</g>
<!-- 4341966288 -->
<g id="node10" class="node">
<title>4341966288</title>
<polygon fill="none" stroke="black" points="233,-28.5 233,-64.5 341.5,-64.5 341.5,-28.5 233,-28.5"/>
<text text-anchor="middle" x="244" y="-41.7" font-family="Times,serif" font-size="14.00">c</text>
<polyline fill="none" stroke="black" points="255,-29 255,-64.5"/>
<text text-anchor="middle" x="298.25" y="-41.7" font-family="Times,serif" font-size="14.00">data 10.0000</text>
</g>
<!-- 4341966288&#45;&gt;4339761712+ -->
<g id="edge9" class="edge">
<title>4341966288&#45;&gt;4339761712+</title>
<path fill="none" stroke="black" d="M341.83,-59.05C350.54,-61.09 359.37,-63.16 367.53,-65.07"/>
<polygon fill="black" stroke="black" points="366.52,-68.43 377.05,-67.3 368.11,-61.61 366.52,-68.43"/>
</g>
</g>
</svg>
